<svg width="18" height="18" viewBox="0 0 18 18" fill="none" xmlns="http://www.w3.org/2000/svg">
<path d="M17.007 0H0.993C0.44475 0 0 0.44475 0 0.993V17.007C0 17.556 0.44475 18 0.993 18H9.6135V11.0295H7.26675V8.31375H9.6135V6.3075C9.6135 3.98325 11.034 2.71875 13.1077 2.71875C14.1015 2.71875 14.9558 2.7915 15.2048 2.8245V5.2545H13.764C12.639 5.2545 12.42 5.79525 12.42 6.58275V8.316H15.108L14.7593 11.0385H12.42V18H17.0062C17.556 18 18 17.556 18 17.007V0.993C18 0.44475 17.556 0 17.007 0Z" fill="black"/>
</svg>
