<svg width="18" height="16" viewBox="0 0 18 16" fill="none" xmlns="http://www.w3.org/2000/svg">
<path d="M17.9655 2.42682C17.3018 2.71857 16.593 2.91732 15.8468 3.00807C16.6073 2.54982 17.1922 1.82757 17.469 0.96582C16.7558 1.38207 15.9653 1.68507 15.1238 1.85382C14.4518 1.13457 13.494 0.68457 12.4305 0.68457C10.3927 0.68457 8.7405 2.33682 8.7405 4.37232C8.7405 4.66482 8.77425 4.94607 8.83575 5.21532C5.76825 5.07057 3.0495 3.59757 1.23 1.37082C0.90975 1.91232 0.7305 2.54157 0.7305 3.22707C0.7305 4.50957 1.383 5.63682 2.3715 6.29907C1.76625 6.27957 1.197 6.11307 0.7005 5.83707V5.88282C0.7005 7.67157 1.97025 9.16332 3.66 9.50307C3.35025 9.58632 3.02325 9.63132 2.688 9.63132C2.4525 9.63132 2.22675 9.60882 2.001 9.56682C2.47425 11.0316 3.83475 12.0996 5.454 12.1296C4.194 13.1188 2.59725 13.7083 0.8775 13.7083C0.585 13.7083 0.29325 13.6911 0 13.6581C1.64175 14.7036 3.576 15.3148 5.66775 15.3148C12.4583 15.3148 16.167 9.69282 16.167 4.82532C16.167 4.66857 16.167 4.51032 16.1558 4.35282C16.8765 3.83607 17.5057 3.18282 18.0007 2.44182L17.9655 2.42682Z" fill="black"/>
</svg>
