<svg viewBox="0 0 927 726" fill="none" xmlns="http://www.w3.org/2000/svg">
<g clip-path="url(#clip0)">
<path opacity="0.1" d="M325.176 711.938C414.482 711.938 486.878 698.211 486.878 681.278C486.878 664.345 414.482 650.618 325.176 650.618C235.871 650.618 163.474 664.345 163.474 681.278C163.474 698.211 235.871 711.938 325.176 711.938Z" fill="#6C63FF"/>
<path opacity="0.1" d="M538.593 102.385C479.165 100.326 422.564 81.1173 368.517 60.1074C314.469 39.0975 260.936 15.8267 202.931 4.69676C165.623 -2.46278 122.952 -3.48295 92.898 16.516C63.9642 35.8164 54.6165 69.0408 49.5938 99.8939C45.8106 123.11 43.5885 147.548 53.9462 169.284C61.1452 184.375 73.9088 197.058 82.7422 211.515C113.476 261.806 91.7502 323.825 58.4548 372.931C42.8447 395.963 24.7095 417.965 12.653 442.458C0.596479 466.952 -4.97724 495.112 5.57334 520.166C16.0229 544.98 40.9348 563.582 67.9218 576.679C122.732 603.286 187.293 610.896 250.293 615.216C389.71 624.756 529.861 620.629 669.645 616.484C721.378 614.958 773.332 613.405 824.221 605.4C852.484 600.952 881.657 593.893 902.18 576.854C928.221 555.228 934.676 518.612 917.22 491.5C887.947 446.006 807.032 434.711 786.546 385.899C775.288 359.025 786.849 329.1 803.221 304.184C838.334 250.722 897.184 203.822 900.279 142.723C902.409 100.758 874.118 58.7288 830.373 38.8677C784.526 18.0508 720.937 20.6702 687.128 55.1261C652.281 90.5654 591.071 104.214 538.593 102.385Z" fill="#6C63FF"/>
<path d="M491.369 332.464L463.243 313.485L477.43 292.347L403.144 286.419L376.451 307.079L343.036 288.33L315.168 291.685L314.837 284.332C314.492 276.667 313.723 269.027 312.532 261.448C312.652 259.15 312.734 256.512 312.725 253.645C312.725 241.559 311.091 225.54 303.91 214.86L305.563 199.989L292.156 184.135C294.309 179.843 296.764 175.709 299.502 171.765C299.961 171.103 300.421 170.46 300.916 169.835C318.317 168.576 332.045 154.257 332.045 136.748C332.045 135.939 332.045 135.131 331.953 134.331C331.953 134.009 331.889 133.679 331.852 133.357C333.551 134.276 335.268 135.195 336.985 136.114C337.306 136.574 337.674 137.033 338.078 137.575L338.16 137.677L338.674 138.311L338.84 138.504C339.023 138.724 339.216 138.936 339.409 139.156L339.538 139.303C340.024 139.846 340.539 140.397 341.089 140.939C341.155 140.993 341.216 141.051 341.273 141.114L341.962 141.757L342.155 141.932C342.742 142.456 343.367 142.961 343.991 143.439L344.193 143.586L344.983 144.128L345.24 144.294C345.543 144.478 345.855 144.671 346.158 144.845L346.268 144.91C346.626 145.103 346.994 145.286 347.361 145.461L347.545 145.535C347.857 145.669 348.163 145.798 348.463 145.921L348.748 146.022C349.069 146.132 349.381 146.233 349.712 146.325L349.914 146.38C350.318 146.481 350.722 146.564 351.135 146.628H351.181C351.57 146.691 351.962 146.731 352.356 146.748H352.623C352.974 146.766 353.327 146.766 353.679 146.748H353.908C354.349 146.722 354.787 146.67 355.221 146.591C357.276 146.321 359.248 145.613 361.006 144.514C361.454 144.215 361.85 143.846 362.181 143.421C364.018 141.013 361.998 138.375 361.998 138.375C361.282 136.666 356.635 135.462 356.635 135.462C356.635 135.462 341.943 129.322 341.943 124.433C341.943 119.543 338.27 94.177 300.356 88.3777C300.356 88.3777 275.692 86.9899 268.76 100.206L268.613 101.75C266.574 103.028 264.885 105.592 262.874 106.345C262.005 106.532 261.167 106.842 260.385 107.265V107.09C260.153 107.293 259.963 107.54 259.825 107.816C259.393 108.676 259.134 109.613 259.063 110.573C258.856 111.746 258.449 112.875 257.86 113.909C257.696 114.203 257.512 114.486 257.309 114.755V114.755L257.153 115.003C258.219 115.086 259.29 114.913 260.275 114.498C260.12 115.756 259.811 116.99 259.357 118.174C259.941 118.193 260.517 118.043 261.019 117.744C261.52 117.444 261.925 117.006 262.185 116.483V116.409L262.304 116.244C262.535 115.818 262.726 115.372 262.874 114.911L262.773 115.021C262.956 114.424 263.122 113.818 263.324 113.229C263.416 112.898 263.569 112.586 263.774 112.31C264.019 112.063 264.318 111.877 264.649 111.767C264.979 111.656 265.33 111.625 265.674 111.676L265.298 119.644H265.463C265.242 120.224 264.972 120.784 264.655 121.317C263.351 123.431 260.982 124.874 260.11 127.19C259.734 128.307 259.59 129.489 259.687 130.664C259.687 131.353 259.77 132.052 259.825 132.741V132.686C259.954 134.524 259.99 136.27 258.999 137.75C258.319 138.761 257.227 139.524 256.85 140.673C256.746 140.993 256.699 141.329 256.712 141.665C256.786 142.672 256.996 143.665 257.337 144.616C257.341 144.597 257.341 144.579 257.337 144.56C257.566 145.26 257.619 146.004 257.493 146.729C257.08 148.567 254.848 150.102 254.959 151.858C254.952 152.089 254.986 152.319 255.06 152.538C255.489 153.395 256.232 154.054 257.135 154.376C258.55 155.182 260.176 155.541 261.799 155.405C262.408 155.295 262.996 155.094 263.544 154.808C262.901 156.288 262.24 157.749 261.57 159.137C261.469 159.357 261.359 159.578 261.248 159.799C261.248 159.799 255.574 156.003 252.351 163.741C251.41 165.349 250.737 167.1 250.358 168.925C250.197 169.655 249.969 170.368 249.679 171.057C248.248 173.482 246.106 175.407 243.545 176.572C236.97 179.586 210.415 212.737 209.946 221.321C209.717 224.672 209.151 227.991 208.257 231.229C206.166 238.853 205.629 246.82 206.677 254.656C207.006 257.188 207.549 259.688 208.303 262.128C211.122 270.703 213.004 286.704 213.004 286.704L216.053 314.478C215.94 318.311 216.105 322.148 216.549 325.957C213.436 329.514 200.938 344.338 205.713 348.373C209.386 351.553 215.814 351.029 219.423 350.377C216.383 357.904 211.599 370.991 210.966 379.98C210.047 393.279 212.536 410.897 216.475 417.662C220.414 424.426 233.545 441.778 233.545 441.778C233.545 441.778 232.93 465.582 237.622 474.23C242.314 482.879 244.206 500.819 244.206 500.819C244.206 500.819 248.586 515.965 246.391 521.535C244.197 527.104 250.459 531.736 243.885 535.44C237.31 539.144 228.899 622.623 228.899 622.623C228.899 622.623 225.511 677.335 228.899 680.12C229.08 680.252 229.274 680.366 229.477 680.46V698.842C229.477 698.842 227.127 702.702 236.686 703.483C243.233 704.007 261.79 705.192 272.8 705.882L281.33 706.415C281.33 706.415 301.532 710.44 310.457 706.415C319.382 702.389 335.204 702.481 332.853 691.847C332.541 690.4 332.124 688.978 331.604 687.592C329.024 680.993 324.644 680.24 316.572 678.401C316.104 678.3 315.654 678.208 315.241 678.135C306.738 676.655 303.947 680.616 299.181 675.46C295.04 671.003 281.854 666.012 277.364 664.432C277.474 664.101 277.612 663.779 277.722 663.439C276.45 663.223 275.268 662.646 274.315 661.776L286.482 662.548L293.727 662.998C293.727 662.998 310.898 666.426 318.519 662.998C326.14 659.57 339.547 659.662 337.545 650.627C337.281 649.396 336.928 648.186 336.489 647.006C334.294 641.4 330.566 640.784 323.707 639.231C323.312 639.148 322.945 639.065 322.578 639.001C315.351 637.742 312.982 641.106 308.933 636.731C305.462 632.999 294.507 628.818 290.568 627.393C290.568 625.353 287.813 622.449 286.078 619.535C284.039 616.135 287.804 604.233 287.804 604.233L289.953 554.851C290.771 554.486 291.636 554.239 292.524 554.116C292.524 554.116 302.239 544.833 300.044 534.944C299.597 531.953 299.364 528.934 299.346 525.91C302.542 522.941 306.94 518.557 308.189 515.855C310.227 511.453 308.189 490.121 308.189 490.121V408.554L324.442 410.199L339.189 411.715L343.679 412.175L358.426 413.664L392.318 417.092L422.859 411.302L436.072 408.802L463.243 403.655V337.114L491.369 332.464ZM267.676 111.97L265.785 111.768C266.409 111.796 267.07 111.915 267.676 111.97Z" fill="url(#paint0_linear)"/>
<path d="M425.448 375.669C416.266 388.821 383.255 381.855 383.255 381.855L357.673 357.895L354.229 354.65L360.005 342.371C360.005 342.371 361.842 342.877 364.991 343.778C381.529 348.584 433.198 364.613 425.448 375.669Z" fill="#EFB7B9"/>
<path opacity="0.1" d="M364.973 343.778C363.843 347.711 360.749 353.603 357.673 357.895L354.229 354.65L360.005 342.371C360.005 342.371 361.86 342.877 364.973 343.778Z" fill="black"/>
<path d="M277.235 205.311C277.235 205.311 253.655 215.779 254.812 241.485C255.644 258.047 257.447 274.545 260.211 290.894C260.211 290.894 255.39 329.578 275.463 339.55C295.536 349.522 314.112 357.72 314.112 357.72C314.112 357.72 345.515 361.102 349.418 362.499C353.32 363.896 365.515 342.537 363.265 339.21C361.015 335.883 332.192 328.907 328.519 323.356C324.846 317.805 316.352 314.377 316.352 314.377C316.352 314.377 307.583 309.064 306.986 304.267C306.389 299.469 308.703 295.894 309.291 293.79C309.878 291.685 311.366 271.364 311.366 271.364C311.366 271.364 321.265 199.034 277.235 205.311Z" fill="#DCE6F2"/>
<path opacity="0.1" d="M292.799 289.838C292.799 289.838 260.45 295.26 263.581 306.592C263.581 306.592 275.325 294.359 292.799 289.838Z" fill="black"/>
<path opacity="0.1" d="M293.047 294.424C293.047 294.424 275.261 308.954 278.741 309.699C282.221 310.443 293.047 294.424 293.047 294.424Z" fill="black"/>
<path opacity="0.1" d="M301.596 299.488C301.596 299.488 296.83 309.257 299.759 308.596C302.689 307.934 301.596 299.488 301.596 299.488Z" fill="black"/>
<path opacity="0.1" d="M366.167 344.816L364.202 344.256C364.762 342.417 364.918 340.929 364.459 340.239C362.209 336.912 333.404 329.946 329.74 324.385C326.076 318.825 317.573 315.406 317.573 315.406C317.573 315.406 308.804 310.094 308.207 305.296C307.61 300.499 309.924 296.924 310.512 294.819C311.1 292.714 312.587 272.384 312.587 272.384C312.587 272.384 322.458 200.063 278.429 206.34C278.429 206.34 254.848 216.818 255.996 242.524C256.829 259.086 258.635 275.584 261.405 291.933C261.405 291.933 256.584 330.617 276.657 340.588C296.729 350.56 315.305 358.758 315.305 358.758C315.305 358.758 346.7 362.131 350.612 363.538C352.09 364.071 354.762 361.323 357.379 357.545L358.867 358.933L384.449 382.884C384.449 382.884 417.459 389.86 426.642 376.708C434.401 365.642 382.741 349.614 366.167 344.816Z" fill="black"/>
<path d="M263.663 108.827C262.765 109.003 261.904 109.336 261.12 109.81C260.202 110.573 260.202 111.878 259.972 113.018C259.702 114.603 259.074 116.106 258.136 117.411C259.181 117.488 260.229 117.315 261.193 116.906C261.036 118.164 260.728 119.398 260.275 120.582C260.847 120.596 261.411 120.445 261.9 120.147C262.389 119.849 262.781 119.416 263.03 118.9C263.516 117.864 263.9 116.784 264.178 115.674C264.264 115.342 264.414 115.03 264.618 114.755C265.463 113.753 267.033 114.204 268.337 114.332C269.422 114.424 270.512 114.223 271.494 113.751C272.476 113.279 273.313 112.553 273.92 111.648C275.307 109.544 275.389 104.158 272.084 103.588C268.631 103.018 266.482 107.779 263.663 108.827Z" fill="#965D7B"/>
<g opacity="0.1">
<path opacity="0.1" d="M261.028 110.941C261.111 110.49 261.166 110.022 261.267 109.571C260.395 110.334 260.349 111.63 260.119 112.779C260.003 113.442 259.822 114.091 259.577 114.718C260.3 113.565 260.793 112.282 261.028 110.941V110.941Z" fill="black"/>
<path opacity="0.1" d="M261.322 118.532C261.779 117.35 262.088 116.115 262.24 114.856C261.321 115.243 260.325 115.416 259.329 115.362C259.039 116.008 258.686 116.624 258.273 117.2C259.315 117.28 260.36 117.11 261.322 116.703C261.169 117.962 260.861 119.197 260.404 120.38C260.976 120.393 261.539 120.242 262.028 119.943C262.516 119.645 262.909 119.213 263.158 118.698C263.387 118.28 263.572 117.84 263.709 117.383C263.44 117.76 263.08 118.063 262.663 118.264C262.245 118.465 261.784 118.557 261.322 118.532V118.532Z" fill="black"/>
<path opacity="0.1" d="M269.384 112.283C268.08 112.154 266.501 111.704 265.656 112.705C265.455 112.983 265.306 113.294 265.215 113.625C265.133 113.863 265.059 114.112 264.995 114.36C265.867 113.67 267.281 114.038 268.466 114.158C269.551 114.246 270.639 114.044 271.621 113.573C272.602 113.101 273.44 112.377 274.049 111.474C274.327 111.028 274.535 110.541 274.664 110.031C274.035 110.81 273.225 111.423 272.304 111.815C271.384 112.208 270.381 112.368 269.384 112.283Z" fill="black"/>
</g>
<path d="M291.302 184.733L305.306 201.589L303.478 218.601L286.555 192.085L291.302 184.733Z" fill="#DCE6F2"/>
<path opacity="0.1" d="M305.296 201.589L303.579 217.59L303.469 218.601L288.199 194.668L286.555 192.085L287.033 191.341L291.293 184.733L292.239 185.872L305.296 201.589Z" fill="black"/>
<path d="M312.569 161.912C307.831 163.273 303.304 167.941 299.365 173.612C296.702 177.525 294.321 181.622 292.239 185.872C290.944 188.464 289.806 190.955 288.86 193.124L288.199 194.668C286.601 198.445 285.71 200.973 285.71 200.973C285.71 200.973 249.44 173.676 255.179 171.838C257.107 171.222 259.642 167.087 262.148 161.876L262.461 161.214C264.049 157.868 265.61 154.137 266.997 150.626C269.834 143.411 271.937 137.143 271.937 137.143C271.937 137.143 327.031 157.777 312.569 161.912Z" fill="#EFB7B9"/>
<path d="M334.267 135.609C334.267 135.609 342.641 150.773 353.89 148.705C365.138 146.637 360.51 140.562 360.51 140.562L334.267 135.609Z" fill="#444053"/>
<path d="M318.042 660.535C310.622 663.926 293.846 660.535 293.846 660.535L286.776 660.094C277.593 659.505 262.222 658.513 256.786 658.072C248.852 657.419 250.799 654.166 250.799 654.166V634.507L289.291 624.746C289.291 624.746 304.507 629.957 308.676 634.507C312.633 638.845 314.947 635.508 322.008 636.758C322.357 636.823 322.725 636.896 323.11 636.988C329.813 638.523 333.45 639.13 335.598 644.69C336.03 645.858 336.377 647.056 336.636 648.274C338.619 657.226 325.452 657.162 318.042 660.535Z" fill="#A36468"/>
<path opacity="0.1" d="M335.598 644.69C334.219 645.553 332.769 646.297 331.264 646.914C326.214 649.221 321.412 652.033 316.306 654.211C311.201 656.39 305.7 657.943 300.173 657.529C297.28 657.318 294.323 656.61 291.56 657.437C289.85 658.098 288.24 658.992 286.776 660.094C277.593 659.505 262.222 658.513 256.786 658.072C248.852 657.419 250.799 654.166 250.799 654.166V651.868C251.083 651.868 251.405 651.785 251.772 651.758C253.672 651.727 255.565 652.01 257.373 652.594C261.359 653.678 265.325 654.745 269.311 655.811C269.638 654.573 270.214 653.414 271.004 652.406C271.793 651.398 272.779 650.562 273.902 649.947C276.176 648.738 278.729 648.152 281.303 648.247C287.483 648.329 293.332 651.261 299.502 651.555C301.227 651.714 302.964 651.423 304.543 650.71C305.388 650.287 306.132 649.671 306.958 649.203C308.281 648.562 309.678 648.09 311.118 647.796C315.165 646.788 319.137 645.505 323.009 643.955C324.111 643.523 325.397 642.742 325.25 641.565C325.057 640.003 322.605 639.819 321.962 638.385C321.849 638.127 321.797 637.845 321.809 637.563C321.822 637.281 321.9 637.006 322.036 636.758C322.385 636.823 322.752 636.896 323.138 636.988C329.813 638.523 333.45 639.13 335.598 644.69Z" fill="black"/>
<path d="M310.2 703.547C301.477 707.536 281.734 703.547 281.734 703.547L273.424 703.06C262.663 702.371 244.537 701.222 238.136 700.68C228.798 699.908 231.093 696.084 231.093 696.084V672.915L276.39 661.426C276.39 661.426 294.296 667.556 299.199 672.915C303.855 678.015 306.545 674.091 314.892 675.561C315.305 675.635 315.737 675.727 316.187 675.828C324.074 677.666 328.353 678.355 330.879 684.899C331.39 686.273 331.798 687.683 332.1 689.118C334.377 699.65 318.923 699.568 310.2 703.547Z" fill="#A36468"/>
<path opacity="0.1" d="M330.86 684.899C329.238 685.914 327.533 686.79 325.764 687.519C319.823 690.23 314.167 693.538 308.161 696.103C302.156 698.667 295.683 700.487 289.172 700.009C285.775 699.761 282.295 698.906 279.072 699.898C277.052 700.686 275.152 701.75 273.424 703.06C262.663 702.371 244.537 701.222 238.136 700.68C228.798 699.908 231.093 696.084 231.093 696.084V693.382C231.474 693.32 231.857 693.277 232.241 693.254C234.478 693.213 236.706 693.545 238.834 694.237L252.874 698.024C253.265 696.563 253.95 695.198 254.886 694.011C255.822 692.824 256.991 691.841 258.319 691.121C260.996 689.693 264.003 689.002 267.033 689.118C274.306 689.219 281.183 692.665 288.447 693.015C290.47 693.199 292.506 692.861 294.36 692.031C295.361 691.526 296.197 690.8 297.207 690.257C298.76 689.496 300.405 688.94 302.101 688.603C306.836 687.407 311.487 685.896 316.022 684.081C317.316 683.567 318.831 682.648 318.657 681.269C318.427 679.431 315.544 679.21 314.782 677.519C314.653 677.214 314.595 676.884 314.611 676.553C314.627 676.222 314.717 675.899 314.874 675.607C315.287 675.681 315.718 675.773 316.168 675.874C324.056 677.639 328.335 678.355 330.86 684.899Z" fill="black"/>
<path d="M290.458 544.557L288.006 602.302C288.006 602.302 284.333 614.094 286.326 617.467C288.318 620.84 291.679 624.204 290.458 626.198C289.236 628.193 274.545 649.754 269.797 641.482C265.05 633.211 260.367 597.367 260.367 597.367L264.747 553.096L290.458 544.557Z" fill="#444053"/>
<path d="M301.091 400.686L307.904 409.804V489.101C307.904 489.101 309.897 510.239 307.904 514.605C305.912 518.971 295.811 527.702 295.811 527.702L287.317 484.046L289.154 437.863L301.091 400.686Z" fill="#444053"/>
<path opacity="0.1" d="M290.458 544.557L288.006 602.302C288.006 602.302 284.333 614.094 286.326 617.467C288.318 620.84 291.679 624.204 290.458 626.198C289.236 628.193 274.545 649.754 269.797 641.482C265.05 633.211 260.367 597.367 260.367 597.367L264.747 553.096L290.458 544.557Z" fill="black"/>
<path opacity="0.1" d="M301.091 400.686L307.904 409.804V489.101C307.904 489.101 309.897 510.239 307.904 514.605C305.912 518.971 295.811 527.702 295.811 527.702L287.317 484.046L289.154 437.863L301.091 400.686Z" fill="black"/>
<path d="M307.904 366.865V409.758L300.255 443.147C300.255 443.147 297.804 523.722 299.943 533.519C302.083 543.317 292.597 552.517 292.597 552.517C292.597 552.517 287.088 553.132 287.088 557.415C287.088 561.698 277.905 573.959 277.905 573.959L278.208 597.854C278.208 597.854 282.194 642.585 276.069 651.16C269.944 659.735 278.208 660.967 278.208 660.967C270.559 686.085 233.83 680.267 230.515 677.51C227.2 674.753 230.515 620.528 230.515 620.528C230.515 620.528 238.724 537.812 245.152 534.135C251.579 530.459 245.464 525.864 247.603 520.349C249.743 514.835 245.464 499.826 245.464 499.826C245.464 499.826 243.627 482.052 239.036 473.477C234.445 464.902 235.051 441.309 235.051 441.309C235.051 441.309 222.196 424.15 218.376 417.413C214.556 410.677 212.095 393.214 213.013 380.035C213.638 371.129 218.312 358.161 221.278 350.698C222.701 347.123 223.729 344.807 223.729 344.807L224.602 345.037L274.756 358.179L307.904 366.865Z" fill="#444053"/>
<path opacity="0.1" d="M312.569 161.912C307.831 163.273 303.304 167.941 299.365 173.612H298.336C292.562 173.616 286.889 172.095 281.891 169.201C276.893 166.308 272.746 162.145 269.871 157.133C268.669 155.057 267.702 152.853 266.987 150.562C269.825 143.347 271.928 137.079 271.928 137.079C271.928 137.079 327.031 157.777 312.569 161.912Z" fill="black"/>
<path d="M331.163 138.936C331.171 143.964 330.026 148.928 327.816 153.444C325.605 157.96 322.389 161.908 318.414 164.983C314.439 168.059 309.812 170.181 304.889 171.184C299.965 172.188 294.878 172.047 290.018 170.773C285.157 169.499 280.654 167.125 276.855 163.834C273.056 160.543 270.062 156.424 268.104 151.792C266.146 147.161 265.277 142.142 265.562 137.121C265.848 132.101 267.281 127.212 269.751 122.834C270.747 121.054 271.909 119.374 273.222 117.815C275.388 115.233 277.933 112.996 280.77 111.18C285.563 108.131 291.064 106.379 296.735 106.095C302.407 105.811 308.055 107.004 313.128 109.558C318.201 112.112 322.525 115.94 325.678 120.667C328.831 125.394 330.706 130.859 331.117 136.528C331.136 137.336 331.163 138.136 331.163 138.936Z" fill="#EFB7B9"/>
<path opacity="0.1" d="M303.579 217.59L303.469 218.601L288.199 194.705C286.601 198.482 285.71 201.01 285.71 201.01C285.71 201.01 249.44 173.676 255.179 171.838C257.107 171.223 259.642 167.087 262.148 161.876L262.461 161.214C265.123 169.155 280.596 185.027 287.033 191.387C287.776 192.122 288.392 192.729 288.869 193.17L289.852 194.089L290.366 194.604C292.707 197.021 302.588 207.682 303.579 217.59Z" fill="black"/>
<path d="M314.993 298.67L313.322 352.5L313.028 362.086C313.028 362.086 293.231 360.247 274.756 358.225C259.88 356.599 245.859 354.843 243.701 353.814C240.946 352.518 235.042 351.516 230.386 350.882C226.787 350.395 223.959 350.138 223.959 350.138C223.959 350.138 222.903 350.45 221.277 350.744C217.733 351.388 211.507 351.911 207.88 348.759C203.243 344.724 215.428 330.065 218.468 326.545L219.138 325.782L217.99 315.167L215.006 287.641C215.006 287.641 213.169 271.787 210.415 263.286C209.678 260.869 209.147 258.394 208.826 255.887C207.803 248.123 208.327 240.232 210.369 232.671C211.241 229.459 211.795 226.168 212.022 222.847C212.481 214.345 238.421 181.489 244.849 178.502C247.74 177.152 250.067 174.83 251.423 171.939C251.871 171.031 252.207 170.071 252.424 169.081C255.179 157.133 262.148 161.876 262.148 161.876C263.829 171.223 289.842 195.964 289.842 195.964L290.357 196.479C292.937 199.125 304.433 211.551 303.616 222.157C303.453 226.105 304.042 230.047 305.351 233.774C310.643 250.451 313.685 267.76 314.396 285.242L314.993 298.67Z" fill="#DCE6F2"/>
<path opacity="0.1" d="M278.135 234.749C278.135 234.749 271.707 250.373 266.886 252.9C262.066 255.428 280.431 258.231 278.135 234.749Z" fill="black"/>
<path opacity="0.1" d="M282.956 263.929C282.956 263.929 268.264 265.767 268.264 268.524C268.264 271.282 282.956 263.929 282.956 263.929Z" fill="black"/>
<path opacity="0.1" d="M298.336 281.851C298.336 281.851 276.987 327.345 271.019 328.723C265.05 330.102 298.336 281.851 298.336 281.851Z" fill="black"/>
<path opacity="0.1" d="M289.438 198.271L271.781 205.954L250.468 173.732C250.916 172.823 251.252 171.863 251.469 170.873C254.224 158.925 261.193 163.668 261.193 163.668C262.874 173.015 288.887 197.756 288.887 197.756L289.438 198.271Z" fill="black"/>
<path d="M290.357 196.433L272.699 204.116L251.387 171.893C251.834 170.985 252.17 170.025 252.387 169.035C255.142 157.087 262.112 161.83 262.112 161.83C263.792 171.177 289.806 195.918 289.806 195.918L290.357 196.433Z" fill="#DCE6F2"/>
<path opacity="0.1" d="M313.028 362.086C313.028 362.086 293.231 360.247 274.756 358.225L307.904 366.911V377.02C306.453 378.335 305.195 379.015 304.378 378.666C300.558 377.057 269.384 372.002 269.384 372.002C269.384 372.002 251.276 362.812 231.736 351.783C231.262 351.52 230.802 351.231 230.359 350.919C228.081 349.371 226.117 347.402 224.574 345.12C220.965 339.89 219.202 333.172 218.44 326.582C218.012 322.805 217.852 319.003 217.963 315.204C218.057 310.896 218.45 306.6 219.138 302.346C217.248 285.871 216.328 269.299 216.383 252.716C216.613 226.982 240.717 217.792 240.717 217.792C285.022 213.886 271.285 285.573 271.285 285.573C271.285 285.573 268.723 305.793 268.025 307.861C267.327 309.928 264.82 313.375 265.16 318.2C265.5 323.025 273.966 328.797 273.966 328.797C273.966 328.797 282.23 332.675 285.637 338.42C288.116 342.656 304.222 348.401 313.322 352.5L313.028 362.086Z" fill="black"/>
<path opacity="0.1" d="M327.867 118.532C327.884 120.046 327.57 121.545 326.949 122.925C326.478 124.052 325.932 125.145 325.314 126.197C324.348 128.134 322.976 129.839 321.292 131.197C319.171 132.714 316.49 133.136 313.946 133.752C311.403 134.368 308.758 135.351 307.307 137.52C306.521 138.915 305.995 140.441 305.756 142.024C305.512 143.605 304.881 145.102 303.919 146.38C303.418 147.004 302.724 147.444 301.946 147.63C301.168 147.816 300.351 147.739 299.622 147.409C298.854 146.891 298.271 146.141 297.96 145.268C296.913 142.906 296.647 140.287 296.224 137.741C295.802 135.195 295.205 132.576 293.644 130.526C292.083 128.477 289.319 127.126 286.867 127.925C286.047 128.241 285.298 128.72 284.667 129.333C284.036 129.946 283.535 130.68 283.194 131.491C282.516 133.115 282.05 134.821 281.808 136.564C280.669 142.802 279.326 149.002 277.777 155.166C277.73 155.419 277.626 155.658 277.474 155.865C277.23 156.108 276.9 156.247 276.556 156.251C274.499 156.527 272.524 155.084 270.449 155.24C270.235 155.254 270.023 155.288 269.816 155.341C266.46 149.505 264.979 142.777 265.572 136.069C266.165 129.362 268.804 122.999 273.13 117.843L273.296 117.797C274.676 117.307 275.931 116.516 276.969 115.481C278.294 114.153 279.522 112.731 280.642 111.226L281.376 110.307C283.487 107.762 285.891 105.476 288.539 103.496C289.261 102.904 290.09 102.455 290.981 102.173C291.743 102.024 292.525 101.999 293.295 102.099C296.466 102.48 299.663 102.6 302.854 102.458C305.077 102.108 307.318 101.881 309.566 101.778C315.379 101.943 320.337 106.051 324.01 110.555C325.984 112.862 327.747 115.518 327.867 118.532Z" fill="black"/>
<path d="M265.463 123.707C264.187 125.802 261.882 127.227 261.019 129.524C259.752 132.861 261.891 137.015 259.926 139.993C259.274 140.994 258.2 141.739 257.833 142.888C257.208 144.827 258.916 146.895 258.475 148.889C258.035 150.884 255.408 152.565 256.106 154.514C256.519 155.364 257.242 156.022 258.126 156.352C259.518 157.151 261.119 157.507 262.718 157.372C265.224 156.959 267.088 154.495 269.632 154.312C271.698 154.165 273.672 155.598 275.729 155.332C276.074 155.32 276.401 155.179 276.647 154.937C276.803 154.732 276.907 154.492 276.95 154.238C278.493 148.08 279.84 141.88 280.991 135.636C281.225 133.892 281.688 132.186 282.368 130.563C282.711 129.753 283.213 129.021 283.844 128.408C284.475 127.796 285.222 127.316 286.041 126.997C288.493 126.207 291.247 127.548 292.818 129.598C294.388 131.647 294.985 134.267 295.407 136.813C295.829 139.358 296.096 141.978 297.133 144.34C297.449 145.216 298.034 145.969 298.804 146.49C300.182 147.29 302.037 146.656 303.093 145.461C304.06 144.183 304.691 142.681 304.929 141.095C305.169 139.515 305.695 137.992 306.481 136.601C307.932 134.432 310.585 133.449 313.12 132.833C315.654 132.217 318.326 131.785 320.466 130.269C322.147 128.912 323.519 127.21 324.488 125.278C325.847 122.907 327.114 120.334 327.004 117.604C326.884 114.626 325.121 111.97 323.239 109.654C319.566 105.151 314.598 101.042 308.786 100.886C306.537 100.98 304.295 101.207 302.073 101.566C298.882 101.71 295.685 101.587 292.515 101.199C291.744 101.106 290.963 101.134 290.201 101.281C289.309 101.554 288.481 102.004 287.767 102.605C285.117 104.581 282.71 106.864 280.596 109.406C279.233 111.215 277.754 112.934 276.17 114.553C275.131 115.589 273.877 116.383 272.497 116.878C271.579 117.135 270.66 116.951 269.788 117.236C267.079 118.091 266.721 121.63 265.463 123.707Z" fill="#965D7B"/>
<path opacity="0.1" d="M353.89 148.696C346.544 150.047 340.456 144.101 337.086 139.763C336.051 138.445 335.109 137.057 334.267 135.609L359.482 140.369L360.501 140.562C360.501 140.562 365.138 146.637 353.89 148.696Z" fill="black"/>
<g opacity="0.1">
<path opacity="0.1" d="M258.475 146.261C258.578 145.059 258.396 143.849 257.943 142.731C257.943 142.823 257.86 142.915 257.833 143.007C257.438 144.239 257.97 145.516 258.31 146.794C258.383 146.622 258.438 146.443 258.475 146.261V146.261Z" fill="black"/>
<path opacity="0.1" d="M260.661 131.215C260.566 132.486 260.591 133.763 260.734 135.03C260.828 133.759 260.804 132.482 260.661 131.215Z" fill="black"/>
<path opacity="0.1" d="M324.433 122.622C323.466 124.558 322.094 126.264 320.411 127.622C318.29 129.138 315.617 129.561 313.065 130.177C310.512 130.793 307.877 131.776 306.426 133.945C305.641 135.34 305.115 136.866 304.874 138.449C304.635 140.034 304.004 141.535 303.038 142.814C301.982 144.009 300.127 144.652 298.749 143.843C297.979 143.322 297.393 142.569 297.078 141.693C296.041 139.331 295.765 136.721 295.352 134.166C294.939 131.611 294.323 129 292.762 126.951C291.201 124.901 288.438 123.55 285.986 124.35C285.166 124.668 284.418 125.147 283.787 125.76C283.156 126.372 282.655 127.106 282.313 127.916C281.633 129.539 281.17 131.245 280.936 132.989C279.791 139.233 278.444 145.433 276.895 151.591C276.852 151.845 276.748 152.085 276.592 152.29C276.346 152.532 276.019 152.673 275.674 152.685C273.617 152.951 271.643 151.518 269.577 151.665C267.033 151.849 265.169 154.312 262.663 154.716C261.064 154.86 259.459 154.503 258.071 153.696C257.433 153.421 256.86 153.014 256.391 152.501C256.176 152.809 256.034 153.162 255.975 153.533C255.916 153.904 255.942 154.283 256.051 154.643C256.456 155.498 257.182 156.159 258.071 156.481C259.459 157.288 261.064 157.644 262.663 157.501C265.169 157.096 267.033 154.633 269.577 154.45C271.643 154.302 273.617 155.736 275.674 155.47C276.019 155.458 276.346 155.317 276.592 155.074C276.748 154.87 276.852 154.63 276.895 154.376C278.438 148.249 279.785 142.048 280.936 135.774C281.17 134.03 281.633 132.324 282.313 130.701C282.655 129.89 283.156 129.157 283.787 128.544C284.418 127.932 285.166 127.452 285.986 127.135C288.438 126.335 291.192 127.686 292.762 129.736C294.333 131.785 294.93 134.405 295.352 136.95C295.774 139.496 296.041 142.116 297.078 144.478C297.393 145.354 297.979 146.107 298.749 146.628C300.127 147.428 301.982 146.794 303.038 145.599C304.004 144.32 304.635 142.819 304.874 141.233C305.115 139.651 305.641 138.125 306.426 136.73C307.877 134.561 310.53 133.587 313.065 132.962C315.599 132.337 318.271 131.923 320.411 130.407C322.094 129.048 323.466 127.343 324.433 125.407C325.792 123.045 327.059 120.472 326.949 117.742C326.931 117.391 326.894 117.041 326.838 116.694C326.395 118.798 325.581 120.805 324.433 122.622V122.622Z" fill="black"/>
</g>
<path opacity="0.1" d="M326.985 122.898C329.34 127.088 330.736 131.75 331.071 136.546C322.89 131.951 315.195 126.905 311.311 125.15C304.543 122.089 279.237 122.549 269.724 122.834C270.719 121.054 271.881 119.374 273.195 117.815C275.368 115.231 277.923 112.994 280.77 111.18C284.541 108.785 288.76 107.184 293.17 106.476C297.579 105.769 302.087 105.968 306.417 107.063C310.747 108.159 314.808 110.126 318.352 112.845C321.897 115.565 324.85 118.979 327.031 122.88L326.985 122.898Z" fill="black"/>
<path opacity="0.1" d="M356.185 144.799C351.769 146.16 344.56 143.531 337.086 139.763C336.051 138.445 335.109 137.057 334.267 135.609L359.482 140.369C361.153 141.509 361.575 143.136 356.185 144.799Z" fill="black"/>
<path d="M300.292 91.0338C300.292 91.0338 276.188 89.6552 269.412 102.752L268.319 114.36L266.482 114.158L266.115 122.052C266.115 122.052 302.955 120.444 311.338 124.231C319.722 128.017 345.772 147.097 356.213 143.88C366.653 140.663 355.295 137.676 355.295 137.676C355.295 137.676 340.924 131.583 340.924 126.804C340.924 122.025 337.361 96.7779 300.292 91.0338Z" fill="#444053"/>
<path opacity="0.1" d="M253.802 521.342C253.802 521.342 269.182 536.277 275.839 535.128C275.839 535.128 257.015 533.519 253.802 521.342Z" fill="black"/>
<path opacity="0.1" d="M250.588 528.262C250.588 528.262 251.965 535.946 255.638 535.192C259.311 534.438 250.588 528.262 250.588 528.262Z" fill="black"/>
<path opacity="0.1" d="M274.692 656.675C274.692 656.675 252.856 673.677 256.538 674.137C260.22 674.596 274.692 656.675 274.692 656.675Z" fill="black"/>
<path d="M303.901 319.22L374.605 307.704V374.704L307.427 371.184L303.901 319.22Z" fill="#6C63FF"/>
<path opacity="0.05" d="M303.901 319.22L374.605 307.704V374.704L307.427 371.184L303.901 319.22Z" fill="black"/>
<path d="M374.605 307.704L459.395 314.055L454.703 372.361L374.605 374.704V307.704Z" fill="#6C63FF"/>
<path opacity="0.1" d="M374.605 307.704L459.395 314.055L454.703 372.361L374.605 374.704V307.704Z" fill="black"/>
<path d="M400.674 287.255L374.605 307.704L459.395 314.055L473.252 293.128L400.674 287.255Z" fill="#6C63FF"/>
<path d="M278.3 296.887L341.953 289.13L374.605 307.704L303.901 319.22L278.3 296.887Z" fill="#6C63FF"/>
<path d="M390.105 325.102V416.706L356.984 413.305L342.577 411.835L338.188 411.375L323.79 409.895L303.901 407.855V319.22L374.596 324.036L390.105 325.102Z" fill="#6C63FF"/>
<path d="M459.395 314.055V403.388L432.849 408.489L419.939 410.971L390.105 416.706V325.102L459.395 314.055Z" fill="#6C63FF"/>
<path opacity="0.05" d="M459.395 314.055V403.388L432.849 408.489L419.939 410.971L390.105 416.706V325.102L459.395 314.055Z" fill="black"/>
<path d="M278.3 338.502L303.901 319.22L390.105 325.102L377.415 346.498L278.3 338.502Z" fill="#6C63FF"/>
<path opacity="0.1" d="M278.3 338.502L303.901 319.22L390.105 325.102L377.415 346.498L278.3 338.502Z" fill="white"/>
<path d="M459.395 314.055L390.105 325.102L412.657 345.322L486.878 332.859L459.395 314.055Z" fill="#6C63FF"/>
<path opacity="0.1" d="M459.395 314.055L390.105 325.102L412.657 345.322L486.878 332.859L459.395 314.055Z" fill="white"/>
<path opacity="0.1" d="M432.849 408.489L419.939 410.971V391.882L432.032 388.83L432.849 408.489Z" fill="white"/>
<path opacity="0.1" d="M356.984 400.677V413.305L342.577 411.835V400.677H356.984Z" fill="white"/>
<path opacity="0.1" d="M338.188 404.657V411.375L323.79 409.895V404.657H338.188Z" fill="white"/>
<path opacity="0.1" d="M381.437 393.977C371.566 406.614 338.968 397.883 338.968 397.883L314.745 372.59L311.458 369.162L317.886 357.214C317.886 357.214 319.722 357.821 322.789 358.887C339.023 364.567 389.747 383.344 381.437 393.977Z" fill="black"/>
<path d="M380.519 392.139C370.648 404.776 338.05 396.045 338.05 396.045L313.827 370.752L310.54 367.324L316.967 355.376C316.967 355.376 318.804 355.983 321.871 357.049C338.105 362.729 388.829 381.505 380.519 392.139Z" fill="#EFB7B9"/>
<path opacity="0.1" d="M321.834 357.049C320.493 360.909 317.087 366.626 313.79 370.752L310.503 367.324L316.931 355.376C316.931 355.376 318.776 355.983 321.834 357.049Z" fill="black"/>
<path d="M241.635 214.115C241.635 214.115 217.531 223.306 217.302 249.04C217.247 265.623 218.166 282.195 220.056 298.67C220.056 298.67 213.169 337.041 232.682 348.07C252.195 359.099 270.33 368.289 270.33 368.289C270.33 368.289 301.504 373.344 305.333 374.952C309.162 376.561 322.468 355.882 320.402 352.435C318.335 348.989 289.953 340.487 286.583 334.743C283.213 328.999 274.912 325.13 274.912 325.13C274.912 325.13 266.446 319.349 266.106 314.524C265.766 309.699 268.264 306.252 268.971 304.184C269.678 302.116 272.24 281.897 272.24 281.897C272.24 281.897 285.94 210.163 241.635 214.115Z" fill="#DCE6F2"/>
<path opacity="0.1" d="M252.654 299.313C252.654 299.313 220.056 302.989 222.581 314.478C222.581 314.478 234.968 302.888 252.654 299.313Z" fill="black"/>
<path opacity="0.1" d="M252.654 303.908C252.654 303.908 234.151 317.465 237.549 318.384C240.946 319.303 252.654 303.908 252.654 303.908Z" fill="black"/>
<path opacity="0.1" d="M260.918 309.423C260.918 309.423 255.638 318.926 258.622 318.43C261.606 317.933 260.918 309.423 260.918 309.423Z" fill="black"/>
<path d="M600.318 103.294C600.318 103.294 565.425 101.189 569.502 125.692C569.502 125.692 568.684 130.021 572.605 131.987C572.605 131.987 572.67 130.149 576.186 130.783C577.439 130.994 578.712 131.056 579.979 130.967C581.696 130.853 583.328 130.178 584.625 129.046V129.046C584.625 129.046 594.441 124.993 598.261 108.928C598.261 108.928 601.089 105.417 601.016 104.517L595.121 107.044C595.121 107.044 597.132 111.299 595.543 114.838C595.543 114.838 595.359 107.2 594.221 107.375C593.991 107.375 591.163 108.855 591.163 108.855C591.163 108.855 594.625 116.262 592.008 121.657C592.008 121.657 592.999 112.522 590.079 109.388L585.929 111.814C585.929 111.814 589.978 119.47 587.233 125.719C587.233 125.719 587.94 116.134 585.057 112.402L581.292 115.334C581.292 115.334 585.103 122.889 582.779 128.072C582.779 128.072 582.476 116.915 580.475 116.069C580.475 116.069 577.187 118.973 576.692 120.168C576.692 120.168 579.29 125.683 577.674 128.541C577.674 128.541 576.682 121.106 575.838 121.069C575.838 121.069 572.559 125.995 572.22 129.341C572.378 126.222 573.35 123.199 575.039 120.573C573.149 120.93 571.406 121.835 570.025 123.174C570.025 123.174 570.53 119.69 575.847 119.387C575.847 119.387 578.601 115.646 579.281 115.417C579.281 115.417 573.992 114.975 570.787 116.4C570.787 116.4 573.606 113.119 580.254 114.562L583.927 111.529C583.927 111.529 576.967 110.61 574.01 111.63C574.01 111.63 577.408 108.726 584.928 110.84L588.968 108.423C588.968 108.423 583.037 107.136 579.501 107.605C579.501 107.605 583.229 105.592 590.153 107.77L593.045 106.474C593.045 106.474 588.693 105.619 587.426 105.482C586.159 105.344 586.085 104.994 586.085 104.994C588.839 104.536 591.665 104.854 594.248 105.913C594.248 105.913 600.446 103.68 600.318 103.294Z" fill="#6C63FF"/>
<path opacity="0.1" d="M706.338 225.843C706.338 225.843 671.445 223.738 675.522 248.24C675.522 248.24 674.704 252.569 678.625 254.536C678.625 254.536 678.69 252.698 682.216 253.332C683.468 253.543 684.741 253.605 686.008 253.516C687.705 253.393 689.316 252.722 690.599 251.604V251.604C690.599 251.604 700.424 247.542 704.244 231.477C704.244 231.477 707.063 227.975 706.953 227.074L701.058 229.593C701.058 229.593 703.069 233.848 701.489 237.386C701.489 237.386 701.297 229.749 700.167 229.923C699.938 229.923 697.1 231.403 697.1 231.403C697.1 231.403 700.571 238.82 697.954 244.206C697.954 244.206 698.946 235.07 696.017 231.936L691.912 234.335C691.912 234.335 695.962 241.991 693.216 248.24C693.216 248.24 693.923 238.655 691.04 234.923L687.284 237.864C687.284 237.864 691.086 245.41 688.772 250.593C688.772 250.593 688.469 239.436 686.467 238.59C686.467 238.59 683.18 241.495 682.675 242.689C682.675 242.689 685.283 248.204 683.666 251.062C683.666 251.062 682.675 243.627 681.83 243.59C681.83 243.59 678.552 248.516 678.212 251.862C678.376 248.742 679.351 245.72 681.04 243.094C679.149 243.452 677.403 244.356 676.017 245.695C676.017 245.695 676.532 242.211 681.848 241.908C681.848 241.908 684.557 238.167 685.283 237.938C685.283 237.938 679.993 237.497 676.789 238.921C676.789 238.921 679.608 235.64 686.247 237.129L689.92 234.096C689.92 234.096 682.95 233.177 680.003 234.197C680.003 234.197 683.4 231.293 690.92 233.407L694.961 230.99C694.961 230.99 689.02 229.712 685.485 230.172C685.485 230.172 689.222 228.159 696.145 230.337L699.038 229.041C699.038 229.041 694.685 228.186 693.409 228.049C692.133 227.911 692.068 227.561 692.068 227.561C694.825 227.102 697.655 227.421 700.241 228.481C700.241 228.481 706.448 226.229 706.338 225.843Z" fill="#6C63FF"/>
<path opacity="0.1" d="M494.362 204.088C494.362 204.088 502.397 170 477.567 169.881C477.567 169.881 473.445 168.337 470.846 171.866C470.846 171.866 472.618 172.243 471.415 175.606C470.999 176.796 470.722 178.03 470.589 179.283C470.411 180.991 470.795 182.711 471.682 184.181V184.181C471.682 184.181 474.005 194.567 489.128 201.074C489.128 201.074 492.103 204.456 493.003 204.493L491.534 198.252C491.534 198.252 486.998 199.511 483.784 197.333C483.784 197.333 491.341 198.445 491.35 197.333C491.35 197.104 490.432 194.061 490.432 194.061C490.432 194.061 482.544 196.212 477.678 192.71C477.678 192.71 486.502 195.247 490.092 192.903L488.439 188.382C488.439 188.382 480.175 191.074 474.519 187.297C474.519 187.297 483.839 189.631 488.008 187.426L485.758 183.216C485.758 183.216 477.678 185.679 472.967 182.509C472.967 182.509 483.986 184.108 485.18 182.288C485.18 182.288 482.884 178.548 481.791 177.849C481.791 177.849 475.951 179.485 473.38 177.399C473.38 177.399 480.864 177.684 481.038 176.893C481.038 176.893 476.75 172.822 473.481 171.903C476.528 172.597 479.341 174.073 481.644 176.186C481.611 174.259 481.017 172.385 479.937 170.791C479.937 170.791 483.279 171.893 482.691 177.224C482.691 177.224 485.905 180.533 486.006 181.286C486.006 181.286 487.338 176.149 486.484 172.739C486.484 172.739 489.238 176.084 486.64 182.38L488.99 186.562C488.99 186.562 491.121 179.853 490.579 176.765C490.579 176.765 492.865 180.606 489.495 187.665L491.194 192.067C491.194 192.067 493.462 186.424 493.609 182.876C493.609 182.876 494.959 186.902 491.626 193.363L492.415 196.433C492.415 196.433 493.995 192.288 494.344 191.056C494.693 189.824 495.051 189.815 495.051 189.815C495.037 192.611 494.245 195.348 492.764 197.719C492.764 197.719 493.967 204.134 494.362 204.088Z" fill="#6C63FF"/>
<path opacity="0.1" d="M417.946 215.705C417.946 215.705 389.921 194.723 379.903 217.452C379.903 217.452 376.846 220.622 379.04 224.418C379.04 224.418 380.087 222.939 382.713 225.392C383.643 226.259 384.673 227.011 385.78 227.635C387.28 228.471 389.011 228.794 390.711 228.554V228.554C390.711 228.554 401.142 230.567 413.153 219.253C413.153 219.253 417.441 217.874 417.845 217.066L411.518 215.954C411.518 215.954 410.857 220.613 407.598 222.7C407.598 222.7 411.629 216.211 410.582 215.742C410.371 215.641 407.212 215.283 407.212 215.283C407.212 215.283 406.037 223.389 400.894 226.449C400.894 226.449 406.744 219.363 406.018 215.136L401.216 214.878C401.216 214.878 400.399 223.508 394.669 227.221C394.669 227.221 400.518 219.602 400.178 214.897L395.422 215.283C395.422 215.283 394.458 223.674 389.673 226.725C389.673 226.725 395.541 217.24 394.338 215.439C394.338 215.439 389.995 216.055 388.921 216.772C388.921 216.772 388.085 222.782 385.147 224.308C385.147 224.308 388.406 217.553 387.745 217.084C387.745 217.084 382.3 219.391 380.161 222.019C382.011 219.503 384.486 217.513 387.341 216.248C385.565 215.509 383.612 215.304 381.722 215.66C381.722 215.66 384.054 213.031 388.663 215.705C388.663 215.705 392.979 214.079 393.714 214.281C393.714 214.281 389.536 211 386.074 210.43C386.074 210.43 390.243 209.235 394.972 214.106L399.737 213.619C399.737 213.619 394.439 209.024 391.4 208.252C391.4 208.252 395.835 207.691 400.95 213.592L405.651 213.803C405.651 213.803 401.399 209.465 398.195 207.903C398.195 207.903 402.409 208.27 407.001 213.904L410.132 214.41C410.132 214.41 406.964 211.303 405.972 210.494C404.981 209.686 405.118 209.345 405.118 209.345C407.673 210.478 409.863 212.298 411.445 214.603C411.445 214.603 417.827 216.082 417.946 215.705Z" fill="#6C63FF"/>
<path opacity="0.1" d="M511.249 20.7618C511.249 20.7618 483.224 -0.229781 473.206 22.508C473.206 22.508 470.148 25.6788 472.343 29.4745C472.343 29.4745 473.39 27.9948 476.016 30.4487C476.951 31.3104 477.983 32.0599 479.092 32.6821C480.591 33.5185 482.323 33.8413 484.023 33.6011V33.6011C484.023 33.6011 494.454 35.6139 506.464 24.291C506.464 24.291 510.753 22.9216 511.148 22.1036L504.821 21.0099C504.821 21.0099 504.169 25.6696 500.9 27.7559C500.9 27.7559 504.94 21.2672 503.893 20.7985C503.682 20.6974 500.524 20.339 500.524 20.339C500.524 20.339 499.311 28.4635 494.169 31.5057C494.169 31.5057 500.009 24.4196 499.293 20.1919L494.491 19.9346C494.491 19.9346 493.664 28.5646 487.944 32.2685C487.944 32.2685 493.793 24.6494 493.453 19.9438L488.706 20.3298C488.706 20.3298 487.732 28.7301 482.948 31.7814C482.948 31.7814 488.825 22.2966 487.622 20.4952C487.622 20.4952 483.279 21.111 482.205 21.8279C482.205 21.8279 481.369 27.8386 478.431 29.3642C478.431 29.3642 481.69 22.6091 481.029 22.1312C481.029 22.1312 475.584 24.4472 473.445 27.0758C475.293 24.5563 477.769 22.5662 480.625 21.304C478.847 20.5596 476.89 20.3551 474.996 20.7158C474.996 20.7158 477.338 18.0873 481.948 20.7618C481.948 20.7618 486.263 19.1258 486.998 19.3372C486.998 19.3372 482.82 16.0561 479.358 15.4771C479.358 15.4771 483.518 14.2915 488.247 19.1534L493.012 18.6663C493.012 18.6663 487.723 14.0709 484.675 13.2897C484.675 13.2897 489.11 12.7383 494.234 18.6387L498.935 18.8409C498.935 18.8409 494.684 14.5029 491.47 12.9497C491.47 12.9497 495.694 13.3173 500.285 18.9512L503.407 19.4567C503.407 19.4567 500.23 16.387 499.238 15.5966C498.246 14.8062 498.384 14.4569 498.384 14.4569C500.939 15.5879 503.13 17.4082 504.711 19.714C504.711 19.714 511.092 21.111 511.249 20.7618Z" fill="#6C63FF"/>
<path opacity="0.1" d="M618.334 47.3504C618.334 47.3504 607.131 14.1628 586.002 27.2044C586.002 27.2044 581.687 28.1235 581.347 32.4523C581.347 32.4523 583.046 31.8273 583.799 35.3198C584.078 36.5621 584.501 37.768 585.057 38.9134C585.816 40.4548 587.053 41.7091 588.583 42.4885V42.4885C588.583 42.4885 596.039 50.0708 612.347 47.5618C612.347 47.5618 616.653 48.8669 617.443 48.4165L612.852 43.9039C612.852 43.9039 609.675 47.3688 605.8 47.2309C605.8 47.2309 612.806 44.1796 612.227 43.1962C612.108 43.0032 609.711 40.9169 609.711 40.9169C609.711 40.9169 604.147 46.9184 598.178 46.5232C598.178 46.5232 607.003 44.005 608.802 40.0898L605.001 37.1579C605.001 37.1579 599.436 43.7936 592.614 43.5914C592.614 43.5914 601.796 40.6412 604.119 36.5605L599.987 34.1801C599.987 34.1801 594.478 40.5493 588.766 40.3471C588.766 40.3471 598.977 35.8712 599.005 33.7022C599.005 33.7022 595.084 31.7446 593.789 31.7262C593.789 31.7262 589.694 36.2021 586.443 35.7977C586.443 35.7977 592.944 32.0755 592.669 31.3127C592.669 31.3127 586.884 30.1271 583.624 31.0829C586.573 30.0554 589.738 29.8178 592.807 30.3936C591.759 28.7751 590.262 27.4975 588.5 26.7173C588.5 26.7173 591.916 25.881 594.202 30.6969C594.202 30.6969 598.683 31.8089 599.161 32.388C599.161 32.388 597.581 27.3239 595.056 24.8792C595.056 24.8792 599.161 26.267 600.281 32.9854L604.487 35.283C604.487 35.283 602.751 28.4727 600.658 26.0923C600.658 26.0923 604.634 28.1511 605.497 35.9172L609.261 38.7571C609.261 38.7571 608.215 32.7648 606.452 29.6583C606.452 29.6583 609.721 32.3604 610.308 39.6118L612.595 41.7992C612.595 41.7992 611.75 37.4428 611.401 36.2113C611.052 34.9797 611.337 34.897 611.337 34.897C612.796 37.2812 613.569 40.0231 613.568 42.8194C613.568 42.8194 618.012 47.5894 618.334 47.3504Z" fill="#6C63FF"/>
<path opacity="0.1" d="M545.223 48.9864C545.223 48.9864 510.422 45.1079 513.296 69.8216C513.296 69.8216 512.259 74.1045 516.051 76.2551C516.051 76.2551 516.207 74.417 519.724 75.2441C520.967 75.5118 522.236 75.6382 523.507 75.621C525.224 75.5899 526.884 74.9995 528.236 73.9391V73.9391C528.236 73.9391 538.254 70.3823 542.928 54.5283C542.928 54.5283 545.921 51.1737 545.857 50.2639L539.843 52.488C539.843 52.488 541.679 56.8352 539.843 60.2909C539.843 60.2909 540.035 52.6534 538.924 52.7729C538.695 52.7729 535.793 54.0964 535.793 54.0964C535.793 54.0964 538.878 61.6787 535.995 66.9633C535.995 66.9633 537.446 57.8829 534.682 54.611L530.412 56.8168C530.412 56.8168 534.085 64.6748 531.009 70.7775C531.009 70.7775 532.203 61.2375 529.512 57.3683L525.61 60.1255C525.61 60.1255 529.026 67.8548 526.445 72.9189C526.445 72.9189 526.712 61.7614 524.756 60.8148C524.756 60.8148 521.322 63.572 520.761 64.7116C520.761 64.7116 523.085 70.3179 521.331 73.1211C521.331 73.1211 520.716 65.6491 519.908 65.5755C519.908 65.5755 516.382 70.3271 515.867 73.6817C516.186 70.5716 517.313 67.5993 519.136 65.0609C517.231 65.3244 515.444 66.1389 513.994 67.4045C513.994 67.4045 514.674 63.958 519.999 63.9212C519.999 63.9212 522.892 60.3277 523.672 60.1347C523.672 60.1347 518.411 59.427 515.133 60.6861C515.133 60.6861 518.117 57.5429 524.673 59.3718L528.539 56.5319C528.539 56.5319 521.551 55.1165 518.594 56.0356C518.594 56.0356 522.139 53.2784 529.54 55.8058L533.7 53.5909C533.7 53.5909 527.832 52.0101 524.278 52.295C524.278 52.295 528.107 50.4569 534.912 53.0027L537.868 51.8538C537.868 51.8538 533.562 50.7785 532.295 50.5763C531.027 50.3741 530.982 50.0249 530.982 50.0249C533.757 49.7061 536.567 50.1642 539.099 51.3484C539.099 51.3484 545.288 49.3724 545.223 48.9864Z" fill="#6C63FF"/>
<path opacity="0.1" d="M849.712 319.349C849.712 319.349 814.929 315.47 817.803 340.157C817.803 340.157 816.765 344.439 820.558 346.59C820.558 346.59 820.714 344.752 824.231 345.57C825.472 345.847 826.742 345.973 828.014 345.947C829.732 345.92 831.393 345.329 832.743 344.265V344.265C832.743 344.265 842.761 340.708 847.389 324.863C847.389 324.863 850.382 321.499 850.318 320.599L844.303 322.814C844.303 322.814 846.14 327.17 844.303 330.626C844.303 330.626 844.496 322.979 843.385 323.108C843.156 323.108 840.254 324.422 840.254 324.422C840.254 324.422 843.339 332.004 840.456 337.289C840.456 337.289 841.907 328.218 839.143 324.937L834.873 327.152C834.873 327.152 838.546 335.01 835.479 341.112C835.479 341.112 836.664 331.572 833.973 327.694L830.071 330.451C830.071 330.451 833.486 338.181 830.906 343.235C830.906 343.235 831.173 332.078 829.217 331.14C829.217 331.14 825.792 333.898 825.222 335.037C825.222 335.037 827.555 340.644 825.792 343.447C825.792 343.447 825.176 335.975 824.368 335.901C824.368 335.901 820.842 340.653 820.328 344.007C820.647 340.897 821.774 337.925 823.597 335.387C821.69 335.645 819.902 336.461 818.455 337.73C818.455 337.73 819.134 334.275 824.46 334.238C824.46 334.238 827.362 330.644 828.133 330.46C828.133 330.46 822.872 329.743 819.593 331.003C819.593 331.003 822.578 327.869 829.143 329.698L833 326.858C833 326.858 826.095 325.553 823.092 326.453C823.092 326.453 826.636 323.696 834.037 326.214L838.197 324.009C838.197 324.009 832.329 322.428 828.776 322.713C828.776 322.713 832.605 320.874 839.409 323.42L842.366 322.262C842.366 322.262 838.059 321.187 836.792 320.994C835.525 320.801 835.479 320.443 835.479 320.443C838.254 320.118 841.065 320.573 843.596 321.757C843.596 321.757 849.804 319.744 849.712 319.349Z" fill="#6C63FF"/>
<path opacity="0.1" d="M902.887 351.866C902.887 351.866 868.104 347.996 870.978 372.673C870.978 372.673 869.95 376.956 873.733 379.107C873.733 379.107 873.889 377.269 877.406 378.096C878.645 378.366 879.912 378.489 881.18 378.463C882.889 378.428 884.541 377.842 885.89 376.791V376.791C885.89 376.791 895.899 373.234 900.527 357.38C900.527 357.38 903.53 354.025 903.456 353.115L897.442 355.33C897.442 355.33 899.278 359.687 897.442 363.142C897.442 363.142 897.635 355.505 896.524 355.624C896.294 355.624 893.392 356.939 893.392 356.939C893.392 356.939 896.478 364.521 893.594 369.806C893.594 369.806 895.045 360.735 892.281 357.463L888.012 359.668C888.012 359.668 891.684 367.526 888.617 373.629C888.617 373.629 889.802 364.089 887.112 360.22L883.209 362.977C883.209 362.977 886.625 370.706 884.054 375.77C884.054 375.77 884.311 364.604 882.355 363.666C882.355 363.666 878.93 366.424 878.361 367.563C878.361 367.563 880.693 373.17 878.93 375.973C878.93 375.973 878.315 368.501 877.507 368.427C877.507 368.427 873.981 373.179 873.476 376.533C873.794 373.425 874.917 370.453 876.736 367.912C874.83 368.176 873.043 368.991 871.593 370.256C871.593 370.256 872.282 366.8 877.608 366.773C877.608 366.773 880.5 363.179 881.281 362.986C881.281 362.986 876.019 362.279 872.741 363.538C872.741 363.538 875.725 360.394 882.291 362.223L886.147 359.383C886.147 359.383 879.242 358.078 876.24 358.979C876.24 358.979 879.784 356.222 887.185 358.749L891.345 356.534C891.345 356.534 885.477 354.954 881.924 355.238C881.924 355.238 885.753 353.4 892.557 355.946L895.514 354.797C895.514 354.797 891.207 353.722 889.949 353.52C888.691 353.318 888.627 352.968 888.627 352.968C891.403 352.65 894.213 353.108 896.744 354.292C896.744 354.292 902.979 352.261 902.887 351.866Z" fill="#6C63FF"/>
<path opacity="0.1" d="M784.829 77.9738C784.829 77.9738 756.804 56.9915 746.786 79.72C746.786 79.72 743.729 82.8908 745.923 86.6866C745.923 86.6866 746.97 85.2069 749.596 87.6608C750.526 88.527 751.556 89.2797 752.663 89.9033C754.163 90.7385 755.894 91.0612 757.594 90.8224V90.8224C757.594 90.8224 768.025 92.8351 780.045 81.5214C780.045 81.5214 784.324 80.1428 784.728 79.334L778.42 78.1944C778.42 78.1944 777.758 82.8541 774.499 84.9403C774.499 84.9403 778.53 78.4517 777.483 77.983C777.272 77.8819 774.122 77.5235 774.122 77.5235C774.122 77.5235 772.938 85.6296 767.796 88.6901C767.796 88.6901 773.645 81.6041 772.919 77.3764L768.117 77.1191C768.117 77.1191 767.3 85.7491 761.57 89.4622C761.57 89.4622 767.428 81.8431 767.079 77.1375L762.323 77.5235C762.323 77.5235 761.405 85.9146 756.575 88.9659C756.575 88.9659 762.451 79.4811 761.239 77.6797C761.239 77.6797 756.896 78.2955 755.822 79.0124C755.822 79.0124 754.995 85.0231 752.057 86.5487C752.057 86.5487 755.308 79.7936 754.646 79.3248C754.646 79.3248 749.201 81.6317 747.062 84.2602C748.912 81.7435 751.388 79.754 754.242 78.4885C752.466 77.7496 750.513 77.5452 748.623 77.9003C748.623 77.9003 750.964 75.2717 755.574 77.9462C755.574 77.9462 759.88 76.3195 760.615 76.5217C760.615 76.5217 756.437 73.2406 752.975 72.6708C752.975 72.6708 757.144 71.476 761.873 76.3471L766.639 75.86C766.639 75.86 761.35 71.2646 758.301 70.4926C758.301 70.4926 762.736 69.9319 767.851 75.8324L772.561 76.0438C772.561 76.0438 768.301 71.7058 765.096 70.1433C765.096 70.1433 769.32 70.511 773.902 76.1449L777.033 76.6503C777.033 76.6503 773.865 73.5439 772.873 72.7351C771.882 71.9263 772.029 71.6598 772.029 71.6598C774.58 72.7939 776.766 74.6136 778.346 76.9169C778.346 76.9169 784.71 78.3506 784.829 77.9738Z" fill="#6C63FF"/>
<path opacity="0.1" d="M806.481 229.455C806.481 229.455 796.821 195.789 775.096 207.875C775.096 207.875 770.743 208.546 770.201 212.902C770.201 212.902 771.928 212.36 772.524 215.88C772.746 217.145 773.116 218.379 773.626 219.556C774.307 221.14 775.488 222.457 776.987 223.306V223.306C776.987 223.306 784.094 231.21 800.494 229.445C800.494 229.445 804.736 230.934 805.544 230.53L801.201 225.806C801.201 225.806 797.868 229.133 794.011 228.821C794.011 228.821 801.137 226.063 800.586 225.08C800.476 224.878 798.18 222.681 798.18 222.681C798.18 222.681 792.358 228.435 786.408 227.764C786.408 227.764 795.343 225.65 797.308 221.845L793.635 218.738C793.635 218.738 787.776 225.117 780.972 224.62C780.972 224.62 790.228 222.075 792.781 218.113L788.759 215.549C788.759 215.549 782.928 221.661 777.272 221.201C777.272 221.201 787.675 217.185 787.804 215.025C787.804 215.025 783.966 212.893 782.671 212.82C782.671 212.82 778.383 217.102 775.123 216.551C775.123 216.551 781.79 213.123 781.551 212.351C781.551 212.351 775.821 210.908 772.524 211.707C775.51 210.821 778.675 210.729 781.707 211.441C780.736 209.778 779.299 208.436 777.575 207.581C777.575 207.581 781.027 206.892 783.084 211.809C783.084 211.809 787.501 213.114 787.96 213.72C787.96 213.72 786.61 208.583 784.195 206.037C784.195 206.037 788.236 207.599 789.053 214.364L793.148 216.854C793.148 216.854 791.716 209.961 789.732 207.535C789.732 207.535 793.607 209.768 794.131 217.562L797.804 220.567C797.804 220.567 797.023 214.538 795.407 211.377C795.407 211.377 798.557 214.226 798.814 221.486L800.999 223.784C800.999 223.784 800.356 219.391 800.081 218.141C799.805 216.891 800.081 216.716 800.081 216.716C801.44 219.161 802.092 221.936 801.963 224.731C801.963 224.731 806.151 229.675 806.481 229.455Z" fill="#6C63FF"/>
<path opacity="0.1" d="M591.227 305.315C591.227 305.315 572.468 275.739 555.049 293.44C555.049 293.44 551.063 295.278 551.761 299.644C551.761 299.644 553.276 298.633 554.837 301.85C555.398 302.99 556.095 304.058 556.913 305.03C558.007 306.357 559.508 307.287 561.182 307.677V307.677C561.182 307.677 570.227 313.265 585.47 306.941C585.47 306.941 589.96 307.18 590.621 306.565L585.112 303.256C585.112 303.256 582.844 307.392 579.051 308.173C579.051 308.173 585.13 303.578 584.313 302.732C584.157 302.567 581.329 301.115 581.329 301.115C581.329 301.115 577.353 308.265 571.458 309.303C571.458 309.303 579.437 304.754 580.263 300.545L575.865 298.605C575.865 298.605 572.036 306.372 565.37 307.796C565.37 307.796 573.542 302.75 574.873 298.229L570.282 296.905C570.282 296.905 566.407 304.414 560.852 305.563C560.852 305.563 569.704 298.78 569.217 296.666C569.217 296.666 564.938 295.701 563.708 295.995C563.708 295.995 560.797 301.317 557.509 301.703C557.509 301.703 562.945 296.538 562.495 295.857C562.495 295.857 556.591 296.087 553.653 297.787C556.274 296.088 559.294 295.106 562.413 294.938C561.017 293.616 559.264 292.731 557.372 292.393C557.372 292.393 560.485 290.766 563.799 294.902C563.799 294.902 568.391 294.902 569.024 295.361C569.024 295.361 566.269 290.766 563.248 289.047C563.248 289.047 567.564 289.415 570.245 295.674L574.883 296.905C574.883 296.905 571.568 290.701 568.987 288.928C568.987 288.928 573.331 289.975 576.021 297.319L580.355 299.157C580.355 299.157 577.913 293.597 575.461 290.996C575.461 290.996 579.281 292.834 581.567 299.736L584.322 301.326C584.322 301.326 582.486 297.291 581.834 296.179C581.182 295.067 581.439 294.81 581.439 294.81C583.426 296.774 584.828 299.253 585.488 301.969C585.488 301.969 590.979 305.627 591.227 305.315Z" fill="#6C63FF"/>
<path d="M714.519 154.201C714.519 154.201 696.678 124.065 678.708 141.215C678.708 141.215 674.668 142.961 675.237 147.318C675.237 147.318 676.77 146.343 678.24 149.606C678.765 150.766 679.428 151.858 680.214 152.86C681.268 154.215 682.74 155.184 684.401 155.617V155.617C684.401 155.617 693.262 161.48 708.698 155.617C708.698 155.617 713.179 155.994 713.858 155.396L708.468 151.922C708.468 151.922 706.081 155.975 702.261 156.646C702.261 156.646 708.477 152.207 707.697 151.371C707.531 151.196 704.758 149.652 704.758 149.652C704.758 149.652 700.562 156.683 694.658 157.538C694.658 157.538 702.775 153.236 703.721 149.064L699.387 147.023C699.387 147.023 695.319 154.679 688.607 155.902C688.607 155.902 696.935 151.113 698.404 146.637L693.868 145.167C693.868 145.167 689.754 152.52 684.171 153.53C684.171 153.53 693.225 147.023 692.803 144.9C692.803 144.9 688.561 143.798 687.293 144.055C687.293 144.055 684.217 149.284 680.921 149.569C680.921 149.569 686.513 144.588 686.091 143.889C686.091 143.889 680.177 143.935 677.193 145.544C679.866 143.93 682.914 143.043 686.035 142.97C684.678 141.604 682.951 140.665 681.068 140.268C681.068 140.268 684.236 138.733 687.495 142.97C687.495 142.97 692.087 143.127 692.702 143.595C692.702 143.595 690.103 139 687.128 137.107C687.128 137.107 691.426 137.603 693.914 143.945L698.505 145.323C698.505 145.323 695.392 139.018 692.858 137.162C692.858 137.162 697.174 138.347 699.635 145.764L703.904 147.759C703.904 147.759 701.636 142.125 699.313 139.487C699.313 139.487 703.069 141.445 705.153 148.411L707.844 150.084C707.844 150.084 706.117 145.994 705.511 144.864C704.905 143.733 705.162 143.485 705.162 143.485C707.087 145.51 708.413 148.03 708.991 150.764C708.991 150.764 714.253 154.505 714.519 154.201Z" fill="#6C63FF"/>
<path d="M601.64 217.571C601.64 217.571 602.558 182.555 578.252 187.49C578.252 187.49 573.9 186.819 572.064 190.808C572.064 190.808 573.9 190.808 573.386 194.346C573.218 195.608 573.199 196.885 573.331 198.151C573.497 199.869 574.223 201.483 575.397 202.747C575.397 202.747 579.777 212.434 595.947 215.724C595.947 215.724 599.537 218.435 600.437 218.288L597.682 212.48C597.682 212.48 593.504 214.63 589.914 213.169C589.914 213.169 597.536 212.718 597.324 211.597C597.324 211.367 595.745 208.573 595.745 208.573C595.745 208.573 588.454 212.296 582.991 209.851C582.991 209.851 592.173 210.54 595.176 207.517L592.614 203.445C592.614 203.445 585.103 207.746 578.767 205.21C578.767 205.21 588.362 205.596 591.999 202.59L588.941 198.914C588.941 198.914 581.531 202.976 576.278 200.826C576.278 200.826 587.407 200.155 588.215 198.124C588.215 198.124 585.204 194.935 583.991 194.447C583.991 194.447 578.611 197.205 575.672 195.716C575.672 195.716 583.018 194.484 583.064 193.666C583.064 193.666 578.041 190.551 574.653 190.321C577.777 190.377 580.833 191.251 583.514 192.857C583.096 190.979 582.138 189.263 580.759 187.922C580.759 187.922 584.258 188.317 584.735 193.62C584.735 193.62 588.564 196.212 588.812 196.929C588.812 196.929 589.079 191.626 587.545 188.464C587.545 188.464 590.924 191.176 589.657 197.866L592.807 201.487C592.807 201.487 593.523 194.484 592.375 191.571C592.375 191.571 595.387 194.87 593.532 202.462L596.076 206.423C596.076 206.423 597.159 200.44 596.581 196.92C596.581 196.92 598.711 200.596 596.764 207.59L598.16 210.439C598.16 210.439 598.867 206.055 598.959 204.778C599.051 203.5 599.4 203.417 599.4 203.417C599.952 206.159 599.733 209.001 598.766 211.625C598.766 211.625 601.236 217.691 601.64 217.571Z" fill="#6C63FF"/>
<path opacity="0.1" d="M641.822 662.511C655.479 662.511 666.55 660.639 666.55 658.329C666.55 656.019 655.479 654.147 641.822 654.147C628.165 654.147 617.094 656.019 617.094 658.329C617.094 660.639 628.165 662.511 641.822 662.511Z" fill="#6C63FF"/>
<path opacity="0.1" d="M551.679 726C565.336 726 576.407 724.128 576.407 721.818C576.407 719.509 565.336 717.636 551.679 717.636C538.022 717.636 526.95 719.509 526.95 721.818C526.95 724.128 538.022 726 551.679 726Z" fill="#6C63FF"/>
<path opacity="0.1" d="M85.5248 693.474C99.1819 693.474 110.253 691.602 110.253 689.292C110.253 686.983 99.1819 685.111 85.5248 685.111C71.8678 685.111 60.7966 686.983 60.7966 689.292C60.7966 691.602 71.8678 693.474 85.5248 693.474Z" fill="#6C63FF"/>
<path opacity="0.1" d="M739.238 721.818C752.895 721.818 763.966 719.946 763.966 717.636C763.966 715.327 752.895 713.455 739.238 713.455C725.581 713.455 714.51 715.327 714.51 717.636C714.51 719.946 725.581 721.818 739.238 721.818Z" fill="#6C63FF"/>
<path d="M764.986 670.828C785.377 670.828 801.908 668.03 801.908 664.579C801.908 661.127 785.377 658.329 764.986 658.329C744.594 658.329 728.063 661.127 728.063 664.579C728.063 668.03 744.594 670.828 764.986 670.828Z" fill="#6C63FF"/>
<path d="M780.293 654.349C781.978 652.979 783.205 651.125 783.81 649.037C784.269 646.923 783.369 644.396 781.358 643.624C779.099 642.76 776.684 644.322 774.848 645.903C773.011 647.484 770.927 649.294 768.53 648.964C769.76 647.845 770.681 646.427 771.202 644.847C771.723 643.267 771.828 641.58 771.505 639.948C771.401 639.271 771.116 638.636 770.679 638.109C769.421 636.768 767.153 637.347 765.647 638.404C760.872 641.767 759.541 648.256 759.513 654.101C759.036 651.997 759.44 649.8 759.43 647.668C759.421 645.535 758.824 643.072 756.997 641.951C755.875 641.325 754.608 641.008 753.324 641.032C751.175 640.959 748.779 641.17 747.319 642.742C745.482 644.69 745.969 647.971 747.548 650.094C749.128 652.217 751.543 653.587 753.765 655.075C755.543 656.138 757.062 657.586 758.209 659.312C758.34 659.553 758.447 659.805 758.53 660.066H771.992C775.006 658.547 777.798 656.624 780.293 654.349V654.349Z" fill="#6C63FF"/>
<path d="M68.9231 669.854C68.9231 669.854 83.0181 669.422 87.2879 666.389C91.5577 663.356 108.986 659.744 110.042 664.606C111.098 669.468 131.235 688.769 115.313 688.897C99.3903 689.026 78.3167 686.416 74.0744 683.824C69.8322 681.232 68.9231 669.854 68.9231 669.854Z" fill="#A8A8A8"/>
<path opacity="0.2" d="M115.579 687.206C99.6566 687.335 78.583 684.725 74.3407 682.133C71.1085 680.166 69.823 673.098 69.3914 669.836H68.9231C68.9231 669.836 69.8413 681.223 74.0561 683.806C78.2708 686.388 99.3719 689.007 115.294 688.879C119.885 688.879 121.474 687.206 121.391 684.78C120.749 686.259 118.995 687.179 115.579 687.206Z" fill="black"/>
</g>
<defs>
<linearGradient id="paint0_linear" x1="204.758" y1="398.343" x2="491.369" y2="398.343" gradientUnits="userSpaceOnUse">
<stop stop-color="#808080" stop-opacity="0.25"/>
<stop offset="0.54" stop-color="#808080" stop-opacity="0.12"/>
<stop offset="1" stop-color="#808080" stop-opacity="0.1"/>
</linearGradient>
<clipPath id="clip0">
<rect width="927" height="726" fill="white"/>
</clipPath>
</defs>
</svg>
